# xmcd CD database file generated by Grip 3.2.0
#
# Track frame offsets:
#       150
#       16411
#       30885
#       48430
#       64200
#       84593
#       106662
#       120903
#       141426
#
# Disc length: 2138 seconds
#
# Revision: 1
# Processed by: cddbd v1.5.1PL2 Copyright (c) Steve Scherf et al.
# Submitted via: Grip 3.2.0  GR/20.08.2006
#
DISCID=69085809
DTITLE=Dennico - Ech schwätzen och Lëtzebuergesch
DYEAR=2002
DGENRE=misc
TTITLE0=1964 hei am Land
TTITLE1=Abrëll
TTITLE2=Keen Bléck zréck
TTITLE3=Brasilian Cowboy
TTITLE4=D' Liewne a mengem Kapp
TTITLE5=Jickentriwelblues
TTITLE6=Eoe
TTITLE7=Alles as op
TTITLE8=Wann ech dech esou gesin
EXTD=
EXTT0=
EXTT1=
EXTT2=
EXTT3=
EXTT4=
EXTT5=
EXTT6=
EXTT7=
EXTT8=
PLAYORDER=
